<svg xmlns="http://www.w3.org/2000/svg" viewBox="0 0 120 120"><circle fill="#204056" cx="60" cy="60" r="59.5"/><circle fill="#204056" cx="60" cy="60" r="59.5"/><path fill="#BCBEC0" d="M60 22.9L25 35.2l5.4 45.7L60 97.1l29.6-16.2L95 35.2"/><path fill="#FFF" d="M60 26.8L28.7 37.9l4.9 40.8L60 93.2l26.4-14.5 4.9-40.8"/><path fill="#E6E7E8" d="M60 93.2l26.4-14.5 4.9-40.8L60 26.8v66.4"/><path fill="#204056" d="M60 29.1L38.5 76.8h8.1l4.3-10.3h18.2l4.3 10.3h8.1L60 29.1zm0 30.6h-6.3L60 44.5l6.3 15.2H60z"/></svg>