<svg xmlns="http://www.w3.org/2000/svg" width="32" height="32" viewBox="0 0 32 32"><path fill="#444" d="M15.997 12.86v.002H16.006c.64-.008 1.365-.894 1.365-.894-.5.302-.944.406-1.37.416-.424-.01-.87-.114-1.368-.416 0 0 .726.886 1.365.893zM14.39 24.43h-1.474c-.274 0-.41.08-.475.145-.094.096-.108.23-.043.395.174.445.57.81.687.91.153.132.373.21.59.21.22 0 .417-.08.552-.223.377-.403.6-.836.653-.97.03-.075.065-.22-.045-.333-.086-.088-.236-.133-.444-.133zM9.448 12.944c-.057.503.262.96.262.96.032-.374.11-.64.2-.83.023.516.16 1.18.64 1.71.346.383 1.785 1.172 2.75.307.05.122.105.267.15.424.145.514-.134 1.266-.134 1.266s.755-.855.696-1.63c.542-.024 1.074-.422 1.06-.978 0 0-.946.522-1.78-.44-.488-.56-2.05-2.105-4.17-1.592.22.048.447.12.68.207-.002 0-.004 0-.006.002-.205.09-.32.344-.35.592zm1.422-.09c.978.55 1.876 1.286 2.25 1.855v.002c-.287.167-1.086.523-1.902-.083-.52-.388-.498-1.32-.35-1.774zm8.215 11.58H17.61c-.21 0-.358.044-.444.132-.11.114-.075.258-.045.334.055.132.278.566.654.968.135.144.33.224.553.224.216 0 .436-.078.59-.21.116-.102.512-.465.686-.91.065-.167.05-.3-.044-.396-.066-.066-.2-.144-.475-.144zM17.99 15.15c-.06.775.695 1.63.695 1.63s-.28-.752-.133-1.266c.045-.157.098-.302.148-.424.966.865 2.405.076 2.75-.306.48-.532.62-1.196.64-1.712.09.19.17.456.202.83 0 0 .32-.457.262-.96-.028-.248-.143-.503-.348-.593l-.006-.003c.233-.088.46-.16.68-.207-2.12-.514-3.68 1.032-4.17 1.593-.834.96-1.78.44-1.78.44-.014.555.518.954 1.06.977zm.89-.44c.374-.57 1.273-1.307 2.25-1.857.15.455.173 1.387-.348 1.774-.816.606-1.616.25-1.903.083zm5.003 4.648c-.12.896-.653 1.697-1.232 2.193-.153-1.138-.185-2.782-.185-3.127 0-.737.476-1.23.61-1.307.128-.074.27-.15.418-.23.902-.482 2.026-1.083 2.026-2.192 0-.81-.467-1.162-.775-1.394l-.108-.083c-.104-.084-.187-.15-.217-.218-.218-.492-.178-1.718-.084-1.887.028-.032.84-1.05.59-1.963-.102-.373-.346-.667-.707-.852-.267-.136-.596-.212-.98-.226-.005-.1-.025-.197-.046-.294-.028-.13-.058-.266-.046-.404.02-.233.038-.453.108-.564.424-.668 1.446-.882 1.456-.884l.615-.12-.407-.476c-.007-.01-.866-.876-2.32-.876-.398 0-.804.066-1.208.196-1.215.392-2.15 1.53-2.474 1.968-.157-.05-.318-.094-.48-.134-.21-.792.45-1.93.45-1.93s-.68-.15-1.688.765c-.13-.327-.405-1.03-.088-1.868-1.477.522-1.85 1.318-1.96 2.04-.38-.272-.34-1.156-.36-1.383-.378.044-1.462 1.096-1.413 2.42-.1.028-.198.056-.295.087-.325-.44-1.26-1.577-2.474-1.97-.403-.13-.81-.196-1.206-.196-1.454 0-2.313.868-2.32.877l-.408.476.615.12c.01.002 1.034.216 1.457.884.07.11.09.33.108.564.012.14-.018.275-.046.405-.022.097-.043.195-.048.295-.384.014-.713.09-.98.226-.36.185-.605.48-.706.852-.25.913.562 1.93.59 1.963.095.17.135 1.396-.084 1.887-.03.068-.112.134-.217.218l-.108.083c-.308.233-.774.584-.774 1.394 0 1.108 1.123 1.71 2.026 2.193.147.08.288.155.416.23.135.077.61.57.61 1.306 0 .346-.03 1.99-.185 3.13-.578-.497-1.112-1.298-1.232-2.194 0 0-1.465 1.13-1.035 3.55.39 2.2 2.183 2.964 4.263 3.126.697 1.625 1.803 3.083 4.65 3.085h.01c2.848-.002 3.954-1.46 4.65-3.085 2.08-.16 3.872-.926 4.264-3.125.43-2.42-1.036-3.55-1.036-3.55zM21.7 5.342c.284-.09.58-.138.886-.138.552 0 1 .15 1.238.25-.154.07-.32.16-.486.268-.12-.02-.278-.04-.46-.04-.528 0-1.026.156-1.442.448-.618.434-.904.848-1.035 1.12-.11-.062-.226-.125-.353-.187-.078-.038-.158-.075-.238-.11.307-.45.997-1.324 1.89-1.612zm1.052.914c-.04.052-.08.105-.114.162-.166.262-.193.583-.22.893-.026.323-.053.63-.218.85-.21.04-.405.088-.575.135-.113-.157-.282-.35-.527-.56.072-.24.277-.808.68-1.128.274-.22.603-.336.975-.35zm-14.09-.533c-.164-.11-.33-.198-.485-.268.238-.1.686-.25 1.238-.25.305 0 .603.045.886.136.895.29 1.585 1.162 1.893 1.613l-.24.11c-.125.063-.243.125-.353.188-.132-.272-.418-.686-1.035-1.12-.416-.292-.915-.447-1.44-.447-.183 0-.34.018-.46.04zm2.24 2.013c-.244.208-.412.402-.526.56-.17-.047-.366-.095-.575-.134L9.25 6.257c.372.015.7.132.976.35l.68 1.13zM9.29 16.483c-.136-.078-.278-.155-.422-.233-.745-.402-1.515-.82-1.515-1.53 0-.555.216-.73.445-.913l.14-.16c-.048.384-.1.715-.14.797 0 0 .607-.754.788-2.223.07-.577-.055-1.718-.256-2.157.008.244 0 .49-.016.72-.02-.04-.04-.078-.065-.108-.162-.2-.594-.878-.47-1.333.047-.174.157-.302.335-.393.188-.098.443-.146.756-.146.616 0 1.3.187 1.65.3 1.26.398 2.777 1.547 3.212 1.89l.02.016.28.194-.175-.29c-.01-.018-.958-1.574-2.665-2.332.1-.145.368-.408 1.082-.755 1.075-.524 2.33-.79 3.726-.79s2.65.266 3.726.79c.713.348.98.61 1.082.756-1.707.758-2.654 2.314-2.664 2.33l-.174.292.28-.194.02-.015c.435-.343 1.953-1.492 3.21-1.89.353-.112 1.036-.3 1.65-.3.315 0 .57.05.757.145.178.09.287.22.335.393.124.455-.308 1.132-.47 1.333-.023.03-.044.067-.064.108-.017-.232-.025-.476-.016-.72-.2.438-.327 1.578-.256 2.157.18 1.47.788 2.224.788 2.224-.04-.08-.088-.386-.135-.748.036.032.073.062.11.09l.024.02c.23.185.445.36.445.915 0 .712-.77 1.128-1.516 1.53-.144.078-.286.155-.422.233-.435.25-.903.838-.956 1.714-.044.733.044 2.502.17 3.803-.623.24-1.338.32-1.99.34-.1-.207-.196-.428-.274-.66-.034-.097-.982-2.56-1.323-3.12.273 1.956.877 3.694 1.177 4.493-.173-.024-.367-.037-.587-.037 0 0-2.082 0-2.926-.002H16h-.004l-2.926.002c-.22 0-.414.014-.587.037.3-.8.905-2.537 1.178-4.492-.34.562-1.288 3.023-1.322 3.12-.08.23-.174.453-.275.66-.65-.02-1.365-.098-1.99-.34.128-1.3.216-3.07.172-3.803-.052-.876-.52-1.463-.956-1.714zm2.02 7.072c-.027.025-.05.05-.073.073-.362.39-.43.93-.205 1.598-1.13-.018-2.313-.502-2.914-1.49-.61-1-.438-2.71-.188-2.96.547 1.725 2.367 2.218 3.73 2.277-.135.21-.26.38-.35.502zm8.945 1.625c-.33.947-1.22 3.24-4.255 3.245-3.036-.004-3.925-2.297-4.255-3.245-.183-.526-.17-.915.043-1.156.145-.165.477-.362 1.235-.362H18.978c.76 0 1.09.197 1.237.362.21.242.226.63.043 1.156zm3.628-1.444c-.6.988-1.783 1.472-2.914 1.49.225-.67.156-1.207-.206-1.598-.023-.025-.047-.05-.073-.074-.09-.12-.214-.292-.348-.5 1.363-.06 3.183-.553 3.73-2.278.25.25.42 1.96-.19 2.96z"/></svg>