<svg xmlns="http://www.w3.org/2000/svg" width="32" height="32" viewBox="0 0 32 32"><path fill="#444" d="M22.21.517c-.03.025-.905.93-1.937 2.02L18.398 4.51l-.75 2.926-2.094.037c-3.894.08-6.194.394-6.62.9-.08.094-.068.125.076.25 1.02.875 9.062 1.13 12.78.412 1.32-.256 1.657-.575.94-.88-.545-.238-2.54-.564-3.432-.564-.244 0-.3-.018-.3-.11 0-.057.137-.632.3-1.27l.294-1.162 1.75-1.85c.963-1.02 1.756-1.9 1.77-1.95.062-.28-.682-.88-.9-.73zM9 9.18c0 .188.756 7.3.794 7.412.012.05.075-.044.137-.225.555-1.556 1.66-2.875 2.6-3.094.455-.106.8.006 1.168.375.406.406.48.844.17 1.012-.157.08-.307-.03-.507-.394-.43-.77-1.23-.363-2.093 1.075-.912 1.513-1.15 3.19-.456 3.19.257 0 .876-.49 1.307-1.026.294-.375.406-.58.57-1.063.105-.324.23-.624.28-.66s.162-.064.262-.05c.16.018.174.043.193.312.012.206-.037.456-.175.844-.18.512-.387 1.17-.775 2.456-.087.294-.2.594-.256.67-.137.193-.33.18-.42-.02-.062-.13-.043-.27.132-.856.112-.387.224-.756.243-.825.02-.08-.125.026-.394.276-.626.58-1.24.825-1.6.63-.107-.055-.12-.043-.12.107 0 .475.45 4.738.506 4.806.188.224 1.52.605 2.87.818 1.03.162 3.968.162 5 0 .886-.144 1.855-.37 2.324-.544.662-.244.58.025.956-3.22.18-1.58.325-2.886.313-2.893-.013-.01-.214.138-.445.332-.5.425-.83.588-1.2.594-.33 0-.5-.08-.575-.287-.088-.22.03-.476.506-1.064.53-.656.62-.78.62-.913 0-.28-.645.012-1.013.463-.12.15-.294.394-.387.544-.212.33-.762 1.587-1.037 2.37-.214.605-.413.886-.62.886-.12 0-.32-.15-.32-.238 0-.163.2-.67.57-1.475.238-.512.43-.944.43-.956s-.118.07-.268.188c-.356.294-.75.48-.994.48-.238 0-.488-.15-.488-.286 0-.114.012-.12-.38.1-.595.324-.932.205-.932-.34v-.25l-.256.27c-.47.48-1.106.65-1.456.375-.225-.175-.22-.588.02-1.3.43-1.275.76-1.775 1.055-1.587.182.113.15.294-.136.887-.494 1.02-.525 1.5-.087 1.375.42-.12.92-.775 1.27-1.65.093-.244.21-.488.268-.55.137-.156.344-.113.413.087.044.13 0 .306-.244.906-.2.488-.306.838-.306 1.025-.006.27 0 .28.175.27.225-.02.587-.257.637-.426.194-.63 1.637-4.156 1.75-4.28.125-.126.175-.145.32-.09.105.038.18.114.193.195.012.075-.106.425-.262.78-.612 1.42-1.41 3.47-1.41 3.626 0 .1.03.175.062.175.15 0 .563-.262 1.012-.644.4-.35.494-.463.58-.744.24-.725.413-.93.67-.794.1.056.12.113.094.28-.02.12-.02.214 0 .214s.162-.113.313-.256c.476-.43.882-.538 1.257-.306.175.106.2.156.2.394 0 .325-.25.77-.775 1.387-.194.224-.35.437-.35.474 0 .03.063.056.144.056.137 0 1.188-.806 1.42-1.088.068-.087.212-1.238.543-4.28.243-2.288.443-4.17.43-4.176-.006-.012-.17.037-.363.106-.488.17-1.544.35-2.813.48-1.375.138-6.03.157-7.394.032-1.27-.12-2.494-.313-3.013-.48L9 9.038v.136zm1.875 15.506c0 .012.2.363.438.775l.445.757.18 2.512.19 2.518.187.162c.47.4 1.594.625 3.344.663 1.988.044 3.537-.206 4.044-.663l.2-.175.144-2.537.144-2.53.406-.714c.225-.387.406-.725.406-.75 0-.02-.188.025-.425.106-.844.287-2.488.544-3.95.625-1.625.088-4.144-.22-5.42-.662-.18-.063-.33-.1-.33-.088z"/></svg>