<svg xmlns="http://www.w3.org/2000/svg" width="34" height="32" viewBox="0 0 34 32"><path fill="#444" d="M21.66 10.97c.695 0 1.264-.563 1.264-1.253s-.57-1.253-1.264-1.253c-.695 0-1.264.563-1.264 1.253 0 .695.563 1.253 1.264 1.253zM20.425 12.067h2.442v9.183h-2.442v-9.183zM12.655 18.17h3.304l.892 3.077h2.5L15.723 9.18h-3.037v1.192L9.5 21.247h2.262l.893-3.076zm1.637-6.842l1.22 4.733h-2.44l1.22-4.732z"/><path fill="#444" d="M3.002 2.316v27.007h27.582V2.316H3.002zm25.514 24.88H5.11V4.443h23.406v22.755z"/></svg>