<svg xmlns="http://www.w3.org/2000/svg" xmlns:xlink="http://www.w3.org/1999/xlink" viewBox="0 0 120 120"><circle fill="#204156" cx="60" cy="60" r="59.5"/><defs><circle id="a" cx="60" cy="60" r="60"/></defs><clipPath id="b"><use xlink:href="#a" overflow="visible"/></clipPath><g clip-path="url(#b)"><path fill="#BDBEC0" d="M0 34h120v12H0z"/><path fill="#FFF" d="M0 46h120v74H0z"/><path fill="#FFF" d="M0 58h120v62H0z"/><path fill="#E7E7E7" d="M0 87h58v33H0zM62 87h58v33H62zM0 46h120v12H0z"/><path fill="#204156" d="M40 46h40v12H40z"/><path fill="#FFF" d="M49 50h22v4H49z"/><path fill="#BDBEC0" d="M40 58h40v12H40z"/><path fill="#FFF" d="M49 62h22v4H49z"/><path fill="#BDBEC0" d="M40 70h40v12H40z"/><path fill="#FFF" d="M49 74h22v4H49z"/><path fill="#BDBEC0" d="M40 82h40v12H40z"/><path fill="#FFF" d="M49 86h22v4H49z"/><path fill="#BDBEC0" d="M40 94h40v12H40z"/><path fill="#FFF" d="M49 98h22v4H49z"/><path fill="#BDBEC0" d="M9 50h22v4H9zM89 50h22v4H89z"/><g fill="#204156"><path d="M78 56v-1h-2v1h1M78 58v7h1v-4h2v-1h-2v-4h-1v1M81 63v2h1v-3h2v-1h-3v1M84 64v2h1v-3h1v-1h-2v1M86 63h1v1h-1zM87 64v7h1v-7M86 72v2h1v-3h-1M85 75v1h-8v-2h-1v3h10v-3h-1M76 72h-1v2h1v-1M75 70h-1v2h1v-1M74 68h-1v2h1v-1M72 67h1v1h-1zM72 65h2v-1h-3v3h1v-1M75 66v1h1V56h-1v9h-1v1"/></g><path fill="#FFF" d="M86 64v-1h-1v3h-1v-4h-2v3h-1v-4h-2v4h-1v-9h-2v11h-1v-1h-1v-1h-2v2h1v1h1v2h1v2h1v2h1v2h8v-2h1v-3h1v-7"/></g></svg>