<svg xmlns="http://www.w3.org/2000/svg" width="34" height="32" viewBox="0 0 34 32"><path fill="#444" d="M3.556 2.845v27.07h27.53V2.846H3.556zm25.34 24.918H5.746V4.998h23.15v22.765z"/><path fill="#444" d="M16.555 10.442c-.693-.6-1.726-.94-3.173-.94-1.433 0-3.173.047-3.173.047V20.65h2.325v-3.568s.407-.005.847-.023c1.593-.066 2.526-.548 3.327-1.363.615-.63.954-1.53.954-2.627s-.447-2.062-1.11-2.628zm-3.235 4.673c-.375.004-.533.016-.786-.008v-3.834s.493-.017.97 0c1.2.044 1.834.89 1.834 1.92 0 1.15-.77 1.907-2.018 1.922zM22.205 15.455c-1.005-.356-1.324-.56-1.324-.95 0-.422.353-.676.973-.676.703 0 1.767.453 2.136.657v-1.87c-.503-.255-1.266-.567-2.22-.567-2.028 0-3.335 1.17-3.335 2.728-.017.965.636 1.655 2.33 2.23.954.323 1.205.768 1.205 1.192s-.318.695-1.09.695c-.753 0-1.86-.43-2.328-.718v1.847c.62.338 1.518.66 2.33.684 2.362.074 3.55-1.152 3.55-2.694-.017-1.22-.67-2.016-2.228-2.558z"/></svg>