<svg xmlns="http://www.w3.org/2000/svg" width="32" height="32" viewBox="0 0 32 32"><path fill="#444" d="M20.948 9.155c-1.15.04-2.153.674-2.9 1.55-.828.96-1.378 2.1-1.774 3.265-.71-.58-1.256-1.333-2.394-1.662-.88-.253-1.803-.15-2.653.484-.403.3-.68.755-.81 1.182-.343 1.11.357 2.098.676 2.453l.695.744c.143.147.488.528.32 1.075-.182.595-.9.98-1.633.753-.328-.102-.8-.346-.694-.69.044-.14.145-.246.2-.367.05-.104.073-.182.088-.228.134-.44-.05-1.01-.518-1.154-.438-.134-.886-.028-1.06.536-.197.64.11 1.803 1.75 2.31 1.925.59 3.552-.457 3.783-1.822.146-.855-.24-1.492-.95-2.31l-.575-.636c-.35-.35-.47-.944-.108-1.4.305-.387.74-.55 1.45-.358 1.04.28 1.503 1.003 2.275 1.584-.32 1.046-.527 2.096-.716 3.04l-.117.7c-.553 2.898-.974 4.488-2.07 5.402-.22.157-.536.392-1.012.41-.248.007-.33-.165-.333-.24-.005-.175.142-.255.24-.334.146-.08.368-.213.353-.636-.016-.502-.432-.937-1.032-.916-.45.015-1.135.438-1.11 1.213.028.8.773 1.4 1.898 1.362.6-.02 1.944-.265 3.267-1.837 1.54-1.803 1.97-3.87 2.295-5.383l.36-1.997c.202.024.417.04.65.046 1.918.042 2.877-.952 2.892-1.674.01-.437-.287-.868-.702-.858-.297.01-.67.206-.76.617-.086.403.61.767.065 1.12-.387.25-1.082.428-2.06.284l.178-.984c.364-1.864.812-4.157 2.51-4.212.124-.006.577.005.587.305.003.1-.02.125-.14.354-.12.178-.163.33-.158.505.016.475.378.788.9.77.702-.024.903-.706.892-1.057-.03-.824-.898-1.345-2.046-1.308z"/></svg>